<mxfile host="app.diagrams.net" modified="2023-12-16T18:05:51.589Z" agent="Mozilla/5.0 (Windows NT 10.0; Win64; x64) AppleWebKit/537.36 (KHTML, like Gecko) Chrome/120.0.0.0 Safari/537.36" etag="A2ZmKvVzQ0G1LEJH38a1" version="21.5.2" pages="3">
  <diagram id="Fo40DGJe66TH6S6EUgUs" name="Page-3">
    <mxGraphModel dx="1032" dy="595" grid="1" gridSize="10" guides="1" tooltips="1" connect="1" arrows="1" fold="1" page="1" pageScale="1" pageWidth="827" pageHeight="1169" math="0" shadow="0">
      <root>
        <mxCell id="0" />
        <mxCell id="1" parent="0" />
        <mxCell id="s9Cv7o95TxeG7p0f2qZT-1" value="" style="whiteSpace=wrap;html=1;strokeWidth=1;" parent="1" vertex="1">
          <mxGeometry x="100" y="40" width="640" height="1080" as="geometry" />
        </mxCell>
        <mxCell id="AkxlmaOYPXWPdrXJiU-q-1" value="New Student" style="shape=umlActor;verticalLabelPosition=bottom;verticalAlign=top;html=1;outlineConnect=0;" parent="1" vertex="1">
          <mxGeometry x="760" y="190" width="30" height="60" as="geometry" />
        </mxCell>
        <mxCell id="AkxlmaOYPXWPdrXJiU-q-2" value="Submit the Application" style="ellipse;whiteSpace=wrap;html=1;" parent="1" vertex="1">
          <mxGeometry x="515.63" y="100" width="160" height="40" as="geometry" />
        </mxCell>
        <mxCell id="AkxlmaOYPXWPdrXJiU-q-3" value="" style="endArrow=none;html=1;rounded=0;entryX=1;entryY=0.5;entryDx=0;entryDy=0;exitX=0;exitY=0.3333333333333333;exitDx=0;exitDy=0;exitPerimeter=0;endFill=0;" parent="1" source="AkxlmaOYPXWPdrXJiU-q-1" target="AkxlmaOYPXWPdrXJiU-q-2" edge="1">
          <mxGeometry width="50" height="50" relative="1" as="geometry">
            <mxPoint x="70" y="180" as="sourcePoint" />
            <mxPoint x="220" y="120" as="targetPoint" />
          </mxGeometry>
        </mxCell>
        <mxCell id="8iiRLaR2NJUiP_EzIYH--23" style="edgeStyle=orthogonalEdgeStyle;rounded=0;orthogonalLoop=1;jettySize=auto;html=1;exitX=0.5;exitY=0;exitDx=0;exitDy=0;exitPerimeter=0;" parent="1" source="AkxlmaOYPXWPdrXJiU-q-5" target="AkxlmaOYPXWPdrXJiU-q-1" edge="1">
          <mxGeometry relative="1" as="geometry">
            <Array as="points">
              <mxPoint x="775" y="650" />
              <mxPoint x="775" y="650" />
            </Array>
          </mxGeometry>
        </mxCell>
        <mxCell id="AkxlmaOYPXWPdrXJiU-q-5" value="Student" style="shape=umlActor;verticalLabelPosition=bottom;verticalAlign=top;html=1;outlineConnect=0;" parent="1" vertex="1">
          <mxGeometry x="760" y="700" width="30" height="60" as="geometry" />
        </mxCell>
        <mxCell id="AkxlmaOYPXWPdrXJiU-q-12" value="Fill Application" style="ellipse;whiteSpace=wrap;html=1;" parent="1" vertex="1">
          <mxGeometry x="220" y="100" width="140" height="40" as="geometry" />
        </mxCell>
        <mxCell id="AkxlmaOYPXWPdrXJiU-q-13" value="&amp;lt;&amp;lt;include&amp;gt;&amp;gt;" style="endArrow=open;endSize=12;dashed=1;html=1;rounded=0;exitX=0;exitY=0.5;exitDx=0;exitDy=0;entryX=1;entryY=0.5;entryDx=0;entryDy=0;" parent="1" source="AkxlmaOYPXWPdrXJiU-q-2" target="AkxlmaOYPXWPdrXJiU-q-12" edge="1">
          <mxGeometry width="160" relative="1" as="geometry">
            <mxPoint x="264" y="276" as="sourcePoint" />
            <mxPoint x="248" y="149" as="targetPoint" />
          </mxGeometry>
        </mxCell>
        <mxCell id="AkxlmaOYPXWPdrXJiU-q-18" value="View Exam Schedule" style="ellipse;whiteSpace=wrap;html=1;direction=west;" parent="1" vertex="1">
          <mxGeometry x="500" y="390" width="157.5" height="40" as="geometry" />
        </mxCell>
        <mxCell id="AkxlmaOYPXWPdrXJiU-q-19" value="View Exam Results" style="ellipse;whiteSpace=wrap;html=1;direction=west;" parent="1" vertex="1">
          <mxGeometry x="480" y="490" width="163.75" height="40" as="geometry" />
        </mxCell>
        <mxCell id="AkxlmaOYPXWPdrXJiU-q-20" value="" style="endArrow=none;html=1;rounded=0;entryX=0;entryY=0.5;entryDx=0;entryDy=0;endFill=0;exitX=0;exitY=0.3333333333333333;exitDx=0;exitDy=0;exitPerimeter=0;" parent="1" source="AkxlmaOYPXWPdrXJiU-q-5" target="AkxlmaOYPXWPdrXJiU-q-18" edge="1">
          <mxGeometry width="50" height="50" relative="1" as="geometry">
            <mxPoint x="760" y="730" as="sourcePoint" />
            <mxPoint x="160" y="375" as="targetPoint" />
          </mxGeometry>
        </mxCell>
        <mxCell id="AkxlmaOYPXWPdrXJiU-q-21" value="" style="endArrow=none;html=1;rounded=0;endFill=0;exitX=0;exitY=0.3333333333333333;exitDx=0;exitDy=0;exitPerimeter=0;entryX=0;entryY=0.5;entryDx=0;entryDy=0;" parent="1" source="AkxlmaOYPXWPdrXJiU-q-5" target="XrY8zo_Yib_sE1caM2XO-1" edge="1">
          <mxGeometry width="50" height="50" relative="1" as="geometry">
            <mxPoint x="750" y="730" as="sourcePoint" />
            <mxPoint x="199" y="878" as="targetPoint" />
          </mxGeometry>
        </mxCell>
        <mxCell id="AkxlmaOYPXWPdrXJiU-q-22" value="" style="endArrow=none;html=1;rounded=0;entryX=0;entryY=0.5;entryDx=0;entryDy=0;endFill=0;exitX=0;exitY=0.3333333333333333;exitDx=0;exitDy=0;exitPerimeter=0;" parent="1" source="AkxlmaOYPXWPdrXJiU-q-5" target="AkxlmaOYPXWPdrXJiU-q-19" edge="1">
          <mxGeometry width="50" height="50" relative="1" as="geometry">
            <mxPoint x="760" y="730" as="sourcePoint" />
            <mxPoint x="150" y="410" as="targetPoint" />
            <Array as="points" />
          </mxGeometry>
        </mxCell>
        <mxCell id="AkxlmaOYPXWPdrXJiU-q-23" value="Generate Individual Exam Result Report" style="ellipse;whiteSpace=wrap;html=1;" parent="1" vertex="1">
          <mxGeometry x="420" y="900" width="150" height="50" as="geometry" />
        </mxCell>
        <mxCell id="AkxlmaOYPXWPdrXJiU-q-26" value="" style="endArrow=none;html=1;rounded=0;endFill=0;exitX=0;exitY=0.3333333333333333;exitDx=0;exitDy=0;exitPerimeter=0;" parent="1" source="AkxlmaOYPXWPdrXJiU-q-5" edge="1">
          <mxGeometry width="50" height="50" relative="1" as="geometry">
            <mxPoint x="810" y="760" as="sourcePoint" />
            <mxPoint x="570" y="930" as="targetPoint" />
            <Array as="points">
              <mxPoint x="570" y="930" />
            </Array>
          </mxGeometry>
        </mxCell>
        <mxCell id="AkxlmaOYPXWPdrXJiU-q-29" value="View Course Schedule" style="ellipse;whiteSpace=wrap;html=1;direction=west;" parent="1" vertex="1">
          <mxGeometry x="515.63" y="340" width="155" height="30" as="geometry" />
        </mxCell>
        <mxCell id="AkxlmaOYPXWPdrXJiU-q-30" value="" style="endArrow=none;html=1;rounded=0;entryX=0;entryY=0.5;entryDx=0;entryDy=0;exitX=0;exitY=0.3333333333333333;exitDx=0;exitDy=0;endFill=0;exitPerimeter=0;" parent="1" source="AkxlmaOYPXWPdrXJiU-q-5" target="AkxlmaOYPXWPdrXJiU-q-29" edge="1">
          <mxGeometry width="50" height="50" relative="1" as="geometry">
            <mxPoint x="70" y="730" as="sourcePoint" />
            <mxPoint x="170" y="325" as="targetPoint" />
          </mxGeometry>
        </mxCell>
        <mxCell id="AkxlmaOYPXWPdrXJiU-q-35" value="Pay Exam Fees" style="ellipse;whiteSpace=wrap;html=1;direction=east;" parent="1" vertex="1">
          <mxGeometry x="200" y="550" width="150" height="40" as="geometry" />
        </mxCell>
        <mxCell id="AkxlmaOYPXWPdrXJiU-q-36" value="" style="endArrow=none;html=1;rounded=0;entryX=0;entryY=0.5;entryDx=0;entryDy=0;endFill=0;exitX=0;exitY=0.3333333333333333;exitDx=0;exitDy=0;exitPerimeter=0;" parent="1" source="AkxlmaOYPXWPdrXJiU-q-5" target="AkxlmaOYPXWPdrXJiU-q-41" edge="1">
          <mxGeometry width="50" height="50" relative="1" as="geometry">
            <mxPoint x="750" y="730" as="sourcePoint" />
            <mxPoint x="210" y="735" as="targetPoint" />
            <Array as="points" />
          </mxGeometry>
        </mxCell>
        <mxCell id="AkxlmaOYPXWPdrXJiU-q-41" value="Apply for the Repeat Exam" style="ellipse;whiteSpace=wrap;html=1;direction=west;" parent="1" vertex="1">
          <mxGeometry x="493.75" y="550" width="150" height="40" as="geometry" />
        </mxCell>
        <mxCell id="AkxlmaOYPXWPdrXJiU-q-42" value="&amp;lt;&amp;lt;include&amp;gt;&amp;gt;" style="endArrow=open;endSize=12;dashed=1;html=1;rounded=0;entryX=1;entryY=0.5;entryDx=0;entryDy=0;exitX=1;exitY=0.5;exitDx=0;exitDy=0;" parent="1" source="AkxlmaOYPXWPdrXJiU-q-41" target="AkxlmaOYPXWPdrXJiU-q-35" edge="1">
          <mxGeometry x="0.006" width="160" relative="1" as="geometry">
            <mxPoint x="471" y="717" as="sourcePoint" />
            <mxPoint x="460" y="780" as="targetPoint" />
            <mxPoint as="offset" />
          </mxGeometry>
        </mxCell>
        <mxCell id="AkxlmaOYPXWPdrXJiU-q-43" value="View Repeat Exam Schedule" style="ellipse;whiteSpace=wrap;html=1;direction=west;" parent="1" vertex="1">
          <mxGeometry x="480" y="440" width="177.5" height="40" as="geometry" />
        </mxCell>
        <mxCell id="AkxlmaOYPXWPdrXJiU-q-44" value="" style="endArrow=none;html=1;rounded=0;entryX=0;entryY=0.5;entryDx=0;entryDy=0;endFill=0;exitX=0;exitY=0.3333333333333333;exitDx=0;exitDy=0;exitPerimeter=0;" parent="1" source="AkxlmaOYPXWPdrXJiU-q-5" target="AkxlmaOYPXWPdrXJiU-q-43" edge="1">
          <mxGeometry width="50" height="50" relative="1" as="geometry">
            <mxPoint x="750" y="730" as="sourcePoint" />
            <mxPoint x="173" y="655" as="targetPoint" />
          </mxGeometry>
        </mxCell>
        <mxCell id="AkxlmaOYPXWPdrXJiU-q-45" value="Submit the Course Work" style="ellipse;whiteSpace=wrap;html=1;direction=west;" parent="1" vertex="1">
          <mxGeometry x="493.75" y="620" width="150" height="40" as="geometry" />
        </mxCell>
        <mxCell id="AkxlmaOYPXWPdrXJiU-q-47" value="Remove submitted Coursework" style="ellipse;whiteSpace=wrap;html=1;" parent="1" vertex="1">
          <mxGeometry x="250" y="690" width="140" height="30" as="geometry" />
        </mxCell>
        <mxCell id="AkxlmaOYPXWPdrXJiU-q-49" value="&amp;lt;&amp;lt;extend&amp;gt;&amp;gt;" style="endArrow=open;endSize=12;dashed=1;html=1;rounded=0;exitX=1;exitY=0;exitDx=0;exitDy=0;entryX=1;entryY=0;entryDx=0;entryDy=0;" parent="1" source="AkxlmaOYPXWPdrXJiU-q-47" target="AkxlmaOYPXWPdrXJiU-q-45" edge="1">
          <mxGeometry width="160" relative="1" as="geometry">
            <mxPoint x="320" y="388" as="sourcePoint" />
            <mxPoint x="243" y="440" as="targetPoint" />
          </mxGeometry>
        </mxCell>
        <mxCell id="AkxlmaOYPXWPdrXJiU-q-50" value="" style="endArrow=none;html=1;rounded=0;entryX=0;entryY=0.5;entryDx=0;entryDy=0;endFill=0;exitX=0;exitY=0.3333333333333333;exitDx=0;exitDy=0;exitPerimeter=0;" parent="1" source="AkxlmaOYPXWPdrXJiU-q-5" target="AkxlmaOYPXWPdrXJiU-q-45" edge="1">
          <mxGeometry width="50" height="50" relative="1" as="geometry">
            <mxPoint x="740" y="730" as="sourcePoint" />
            <mxPoint x="440" y="600" as="targetPoint" />
          </mxGeometry>
        </mxCell>
        <mxCell id="AkxlmaOYPXWPdrXJiU-q-51" value="View Messages" style="ellipse;whiteSpace=wrap;html=1;direction=west;" parent="1" vertex="1">
          <mxGeometry x="430" y="710" width="150" height="32.5" as="geometry" />
        </mxCell>
        <mxCell id="AkxlmaOYPXWPdrXJiU-q-52" value="" style="endArrow=none;html=1;rounded=0;entryX=0;entryY=0.5;entryDx=0;entryDy=0;endFill=0;exitX=0;exitY=0.3333333333333333;exitDx=0;exitDy=0;exitPerimeter=0;" parent="1" source="AkxlmaOYPXWPdrXJiU-q-5" target="AkxlmaOYPXWPdrXJiU-q-51" edge="1">
          <mxGeometry width="50" height="50" relative="1" as="geometry">
            <mxPoint x="740" y="730" as="sourcePoint" />
            <mxPoint x="185" y="775" as="targetPoint" />
          </mxGeometry>
        </mxCell>
        <mxCell id="AkxlmaOYPXWPdrXJiU-q-53" value="Send Feedbacks" style="ellipse;whiteSpace=wrap;html=1;direction=west;" parent="1" vertex="1">
          <mxGeometry x="383.13" y="770" width="150" height="30" as="geometry" />
        </mxCell>
        <mxCell id="AkxlmaOYPXWPdrXJiU-q-54" value="" style="endArrow=none;html=1;rounded=0;endFill=0;exitX=0;exitY=0.3333333333333333;exitDx=0;exitDy=0;exitPerimeter=0;" parent="1" source="AkxlmaOYPXWPdrXJiU-q-5" edge="1">
          <mxGeometry width="50" height="50" relative="1" as="geometry">
            <mxPoint x="750" y="730" as="sourcePoint" />
            <mxPoint x="530" y="785" as="targetPoint" />
          </mxGeometry>
        </mxCell>
        <mxCell id="AkxlmaOYPXWPdrXJiU-q-55" value="Logout" style="ellipse;whiteSpace=wrap;html=1;direction=west;" parent="1" vertex="1">
          <mxGeometry x="515.63" y="1070" width="150" height="30" as="geometry" />
        </mxCell>
        <mxCell id="AkxlmaOYPXWPdrXJiU-q-56" value="" style="endArrow=none;html=1;rounded=0;endFill=0;exitX=0;exitY=0.3333333333333333;exitDx=0;exitDy=0;exitPerimeter=0;" parent="1" source="AkxlmaOYPXWPdrXJiU-q-5" edge="1">
          <mxGeometry width="50" height="50" relative="1" as="geometry">
            <mxPoint x="750" y="730" as="sourcePoint" />
            <mxPoint x="660" y="1080" as="targetPoint" />
            <Array as="points">
              <mxPoint x="660" y="1080" />
            </Array>
          </mxGeometry>
        </mxCell>
        <mxCell id="XrY8zo_Yib_sE1caM2XO-1" value="Download Lecture Notes/Past Papers" style="ellipse;whiteSpace=wrap;html=1;direction=west;" parent="1" vertex="1">
          <mxGeometry x="382.5" y="820" width="215" height="35" as="geometry" />
        </mxCell>
        <mxCell id="8iiRLaR2NJUiP_EzIYH--1" value="Login to Account" style="ellipse;whiteSpace=wrap;html=1;direction=west;" parent="1" vertex="1">
          <mxGeometry x="550" y="160" width="132.5" height="35" as="geometry" />
        </mxCell>
        <mxCell id="8iiRLaR2NJUiP_EzIYH--2" value="Verify User" style="ellipse;whiteSpace=wrap;html=1;direction=west;" parent="1" vertex="1">
          <mxGeometry x="220.00000000000006" y="160" width="130" height="35" as="geometry" />
        </mxCell>
        <mxCell id="8iiRLaR2NJUiP_EzIYH--3" value="" style="endArrow=none;html=1;rounded=0;endFill=0;entryX=0;entryY=0.5;entryDx=0;entryDy=0;exitX=0;exitY=0.3333333333333333;exitDx=0;exitDy=0;exitPerimeter=0;" parent="1" source="AkxlmaOYPXWPdrXJiU-q-5" target="8iiRLaR2NJUiP_EzIYH--1" edge="1">
          <mxGeometry width="50" height="50" relative="1" as="geometry">
            <mxPoint x="900" y="730" as="sourcePoint" />
            <mxPoint x="194.69" y="515" as="targetPoint" />
          </mxGeometry>
        </mxCell>
        <mxCell id="8iiRLaR2NJUiP_EzIYH--4" value="" style="endArrow=none;html=1;rounded=0;entryX=0;entryY=0.5;entryDx=0;entryDy=0;endFill=0;exitX=0;exitY=0.3333333333333333;exitDx=0;exitDy=0;exitPerimeter=0;" parent="1" source="AkxlmaOYPXWPdrXJiU-q-5" target="8iiRLaR2NJUiP_EzIYH--6" edge="1">
          <mxGeometry width="50" height="50" relative="1" as="geometry">
            <mxPoint x="60" y="610" as="sourcePoint" />
            <mxPoint x="514.69" y="625" as="targetPoint" />
          </mxGeometry>
        </mxCell>
        <mxCell id="8iiRLaR2NJUiP_EzIYH--5" value="&amp;lt;&amp;lt;include&amp;gt;&amp;gt;" style="endArrow=open;endSize=12;dashed=1;html=1;rounded=0;exitX=1;exitY=0.5;exitDx=0;exitDy=0;" parent="1" source="8iiRLaR2NJUiP_EzIYH--1" target="8iiRLaR2NJUiP_EzIYH--2" edge="1">
          <mxGeometry width="160" relative="1" as="geometry">
            <mxPoint x="274.69" y="605" as="sourcePoint" />
            <mxPoint x="434.69" y="440" as="targetPoint" />
            <Array as="points" />
          </mxGeometry>
        </mxCell>
        <mxCell id="8iiRLaR2NJUiP_EzIYH--6" value="Change Password" style="ellipse;whiteSpace=wrap;html=1;direction=west;" parent="1" vertex="1">
          <mxGeometry x="533.13" y="290" width="142.5" height="30" as="geometry" />
        </mxCell>
        <mxCell id="8iiRLaR2NJUiP_EzIYH--7" value="Verify Current Password" style="ellipse;whiteSpace=wrap;html=1;direction=west;" parent="1" vertex="1">
          <mxGeometry x="220" y="290" width="150" height="30" as="geometry" />
        </mxCell>
        <mxCell id="8iiRLaR2NJUiP_EzIYH--8" value="&amp;lt;&amp;lt;include&amp;gt;&amp;gt;" style="endArrow=open;endSize=12;dashed=1;html=1;rounded=0;entryX=0;entryY=0.5;entryDx=0;entryDy=0;exitX=1;exitY=0.5;exitDx=0;exitDy=0;" parent="1" source="8iiRLaR2NJUiP_EzIYH--6" target="8iiRLaR2NJUiP_EzIYH--7" edge="1">
          <mxGeometry x="0.006" width="160" relative="1" as="geometry">
            <mxPoint x="332.69" y="963" as="sourcePoint" />
            <mxPoint x="284.69" y="645" as="targetPoint" />
            <mxPoint as="offset" />
          </mxGeometry>
        </mxCell>
        <mxCell id="8iiRLaR2NJUiP_EzIYH--9" value="" style="ellipse;whiteSpace=wrap;html=1;direction=west;" parent="1" vertex="1">
          <mxGeometry x="533.13" y="213.13" width="142.5" height="50" as="geometry" />
        </mxCell>
        <mxCell id="8iiRLaR2NJUiP_EzIYH--10" value="" style="endArrow=none;html=1;rounded=0;entryX=0;entryY=0.5;entryDx=0;entryDy=0;endFill=0;exitX=0;exitY=0.3333333333333333;exitDx=0;exitDy=0;exitPerimeter=0;" parent="1" source="AkxlmaOYPXWPdrXJiU-q-5" target="8iiRLaR2NJUiP_EzIYH--9" edge="1">
          <mxGeometry width="50" height="50" relative="1" as="geometry">
            <mxPoint x="60" y="610" as="sourcePoint" />
            <mxPoint x="154.69" y="875" as="targetPoint" />
          </mxGeometry>
        </mxCell>
        <mxCell id="8iiRLaR2NJUiP_EzIYH--11" value="Reset Password" style="ellipse;whiteSpace=wrap;html=1;direction=west;" parent="1" vertex="1">
          <mxGeometry x="220" y="220" width="130" height="36.25" as="geometry" />
        </mxCell>
        <mxCell id="8iiRLaR2NJUiP_EzIYH--12" value="&amp;lt;&amp;lt;extend&amp;gt;&amp;gt;" style="endArrow=open;endSize=12;dashed=1;html=1;rounded=0;exitX=0;exitY=0.5;exitDx=0;exitDy=0;entryX=1;entryY=0.5;entryDx=0;entryDy=0;" parent="1" source="8iiRLaR2NJUiP_EzIYH--11" target="8iiRLaR2NJUiP_EzIYH--9" edge="1">
          <mxGeometry width="160" relative="1" as="geometry">
            <mxPoint x="374.69" y="450" as="sourcePoint" />
            <mxPoint x="304.69" y="515" as="targetPoint" />
          </mxGeometry>
        </mxCell>
        <mxCell id="8iiRLaR2NJUiP_EzIYH--13" value="" style="endArrow=none;html=1;rounded=0;exitX=0;exitY=0.5;exitDx=0;exitDy=0;" parent="1" edge="1">
          <mxGeometry width="50" height="50" relative="1" as="geometry">
            <mxPoint x="533.13" y="237.46000000000004" as="sourcePoint" />
            <mxPoint x="675.63" y="237.46000000000004" as="targetPoint" />
          </mxGeometry>
        </mxCell>
        <mxCell id="8iiRLaR2NJUiP_EzIYH--14" value="Login to Account&lt;br&gt;if forget password" style="edgeLabel;html=1;align=center;verticalAlign=middle;resizable=0;points=[];" parent="8iiRLaR2NJUiP_EzIYH--13" vertex="1" connectable="0">
          <mxGeometry x="0.2591" relative="1" as="geometry">
            <mxPoint x="-19" y="1" as="offset" />
          </mxGeometry>
        </mxCell>
        <mxCell id="yVCt0UQSzZDjMIGgqQcN-1" value="" style="endArrow=none;html=1;rounded=0;entryX=0.941;entryY=0.701;entryDx=0;entryDy=0;endFill=0;entryPerimeter=0;" parent="1" target="yVCt0UQSzZDjMIGgqQcN-2" edge="1">
          <mxGeometry width="50" height="50" relative="1" as="geometry">
            <mxPoint x="760" y="720" as="sourcePoint" />
            <mxPoint x="580" y="981.5" as="targetPoint" />
            <Array as="points" />
          </mxGeometry>
        </mxCell>
        <mxCell id="yVCt0UQSzZDjMIGgqQcN-2" value="Generate Individual attendance Report Date Wise" style="ellipse;whiteSpace=wrap;html=1;" parent="1" vertex="1">
          <mxGeometry x="400" y="1000" width="180" height="50" as="geometry" />
        </mxCell>
        <mxCell id="tW9czdO6cpwFSdQOu1Kk-1" value="Student Management System" style="text;html=1;strokeColor=none;fillColor=none;align=center;verticalAlign=middle;whiteSpace=wrap;rounded=0;fontStyle=1;fontSize=19;" parent="1" vertex="1">
          <mxGeometry x="234" y="50" width="360" height="40" as="geometry" />
        </mxCell>
        <mxCell id="Q30DmbLw-cv_1ruXp6FD-5" style="edgeStyle=orthogonalEdgeStyle;rounded=0;orthogonalLoop=1;jettySize=auto;html=1;exitX=0.5;exitY=1;exitDx=0;exitDy=0;" parent="1" edge="1">
          <mxGeometry relative="1" as="geometry">
            <mxPoint x="260" y="1025" as="sourcePoint" />
            <mxPoint x="260" y="1025" as="targetPoint" />
          </mxGeometry>
        </mxCell>
      </root>
    </mxGraphModel>
  </diagram>
  <diagram name="Page-1" id="zm2gPcS2NBpRJEuXoiyS">
    <mxGraphModel dx="1032" dy="595" grid="1" gridSize="10" guides="1" tooltips="1" connect="1" arrows="1" fold="1" page="1" pageScale="1" pageWidth="827" pageHeight="1169" math="0" shadow="0">
      <root>
        <mxCell id="0" />
        <mxCell id="1" parent="0" />
        <mxCell id="lAVPG-hmWhi9AqOshZHy-2" value="" style="whiteSpace=wrap;html=1;" parent="1" vertex="1">
          <mxGeometry x="100" y="30" width="640" height="1090" as="geometry" />
        </mxCell>
        <mxCell id="lAVPG-hmWhi9AqOshZHy-15" value="Admin" style="shape=umlActor;verticalLabelPosition=bottom;verticalAlign=top;html=1;outlineConnect=0;" parent="1" vertex="1">
          <mxGeometry x="40" y="575" width="30" height="60" as="geometry" />
        </mxCell>
        <mxCell id="d4oiWtsD0GuKBpQf_ANB-4" value="Login to Account" style="ellipse;whiteSpace=wrap;html=1;" parent="1" vertex="1">
          <mxGeometry x="162.5" y="80" width="132.5" height="35" as="geometry" />
        </mxCell>
        <mxCell id="d4oiWtsD0GuKBpQf_ANB-5" value="Verify User" style="ellipse;whiteSpace=wrap;html=1;" parent="1" vertex="1">
          <mxGeometry x="455" y="80" width="130" height="35" as="geometry" />
        </mxCell>
        <mxCell id="d4oiWtsD0GuKBpQf_ANB-8" value="" style="endArrow=none;html=1;rounded=0;exitX=1;exitY=0.3333333333333333;exitDx=0;exitDy=0;exitPerimeter=0;endFill=0;entryX=0;entryY=0.5;entryDx=0;entryDy=0;" parent="1" source="lAVPG-hmWhi9AqOshZHy-15" target="d4oiWtsD0GuKBpQf_ANB-4" edge="1">
          <mxGeometry width="50" height="50" relative="1" as="geometry">
            <mxPoint x="70" y="730" as="sourcePoint" />
            <mxPoint x="180" y="180" as="targetPoint" />
          </mxGeometry>
        </mxCell>
        <mxCell id="d4oiWtsD0GuKBpQf_ANB-13" value="" style="endArrow=none;html=1;rounded=0;exitX=1;exitY=0.3333333333333333;exitDx=0;exitDy=0;exitPerimeter=0;entryX=0;entryY=0.5;entryDx=0;entryDy=0;endFill=0;" parent="1" source="lAVPG-hmWhi9AqOshZHy-15" target="d4oiWtsD0GuKBpQf_ANB-78" edge="1">
          <mxGeometry width="50" height="50" relative="1" as="geometry">
            <mxPoint x="70" y="170" as="sourcePoint" />
            <mxPoint x="193.75" y="840" as="targetPoint" />
          </mxGeometry>
        </mxCell>
        <mxCell id="d4oiWtsD0GuKBpQf_ANB-22" value="" style="endArrow=none;html=1;rounded=0;entryX=0;entryY=0.5;entryDx=0;entryDy=0;exitX=1;exitY=0.3333333333333333;exitDx=0;exitDy=0;exitPerimeter=0;endFill=0;" parent="1" source="lAVPG-hmWhi9AqOshZHy-15" target="d4oiWtsD0GuKBpQf_ANB-33" edge="1">
          <mxGeometry width="50" height="50" relative="1" as="geometry">
            <mxPoint x="60" y="750" as="sourcePoint" />
            <mxPoint x="500" y="290" as="targetPoint" />
          </mxGeometry>
        </mxCell>
        <mxCell id="d4oiWtsD0GuKBpQf_ANB-27" value="&amp;lt;&amp;lt;include&amp;gt;&amp;gt;" style="endArrow=open;endSize=12;dashed=1;html=1;rounded=0;exitX=1;exitY=0.5;exitDx=0;exitDy=0;" parent="1" source="d4oiWtsD0GuKBpQf_ANB-4" target="d4oiWtsD0GuKBpQf_ANB-5" edge="1">
          <mxGeometry width="160" relative="1" as="geometry">
            <mxPoint x="260" y="270" as="sourcePoint" />
            <mxPoint x="420" y="105" as="targetPoint" />
            <Array as="points" />
          </mxGeometry>
        </mxCell>
        <mxCell id="d4oiWtsD0GuKBpQf_ANB-33" value="Change Password" style="ellipse;whiteSpace=wrap;html=1;" parent="1" vertex="1">
          <mxGeometry x="166.25" y="200" width="142.5" height="30" as="geometry" />
        </mxCell>
        <mxCell id="d4oiWtsD0GuKBpQf_ANB-34" value="Verify Current Password" style="ellipse;whiteSpace=wrap;html=1;" parent="1" vertex="1">
          <mxGeometry x="450.94" y="200" width="150" height="30" as="geometry" />
        </mxCell>
        <mxCell id="d4oiWtsD0GuKBpQf_ANB-35" value="&amp;lt;&amp;lt;include&amp;gt;&amp;gt;" style="endArrow=open;endSize=12;dashed=1;html=1;rounded=0;entryX=0;entryY=0.5;entryDx=0;entryDy=0;exitX=1;exitY=0.5;exitDx=0;exitDy=0;" parent="1" source="d4oiWtsD0GuKBpQf_ANB-33" target="d4oiWtsD0GuKBpQf_ANB-34" edge="1">
          <mxGeometry x="0.006" width="160" relative="1" as="geometry">
            <mxPoint x="318" y="628" as="sourcePoint" />
            <mxPoint x="270" y="310" as="targetPoint" />
            <mxPoint as="offset" />
          </mxGeometry>
        </mxCell>
        <mxCell id="d4oiWtsD0GuKBpQf_ANB-36" value="Add Batch" style="ellipse;whiteSpace=wrap;html=1;" parent="1" vertex="1">
          <mxGeometry x="177.5" y="410" width="135" height="40" as="geometry" />
        </mxCell>
        <mxCell id="d4oiWtsD0GuKBpQf_ANB-38" value="Publish Exam Results" style="ellipse;whiteSpace=wrap;html=1;" parent="1" vertex="1">
          <mxGeometry x="175" y="585" width="150" height="40" as="geometry" />
        </mxCell>
        <mxCell id="d4oiWtsD0GuKBpQf_ANB-39" value="" style="endArrow=none;html=1;rounded=0;entryX=0;entryY=0.5;entryDx=0;entryDy=0;exitX=1;exitY=0.3333333333333333;exitDx=0;exitDy=0;exitPerimeter=0;endFill=0;" parent="1" source="lAVPG-hmWhi9AqOshZHy-15" target="d4oiWtsD0GuKBpQf_ANB-36" edge="1">
          <mxGeometry width="50" height="50" relative="1" as="geometry">
            <mxPoint x="70" y="730" as="sourcePoint" />
            <mxPoint x="160" y="375" as="targetPoint" />
          </mxGeometry>
        </mxCell>
        <mxCell id="d4oiWtsD0GuKBpQf_ANB-42" value="" style="endArrow=none;html=1;rounded=0;entryX=0;entryY=0.5;entryDx=0;entryDy=0;exitX=1;exitY=0.3333333333333333;exitDx=0;exitDy=0;exitPerimeter=0;endFill=0;" parent="1" source="lAVPG-hmWhi9AqOshZHy-15" target="GJgH__e3tAiykHZOkwDM-1" edge="1">
          <mxGeometry width="50" height="50" relative="1" as="geometry">
            <mxPoint x="80" y="350" as="sourcePoint" />
            <mxPoint x="190" y="837.5" as="targetPoint" />
          </mxGeometry>
        </mxCell>
        <mxCell id="d4oiWtsD0GuKBpQf_ANB-43" value="" style="endArrow=none;html=1;rounded=0;entryX=0;entryY=0.5;entryDx=0;entryDy=0;exitX=1;exitY=0.3333333333333333;exitDx=0;exitDy=0;exitPerimeter=0;endFill=0;" parent="1" source="lAVPG-hmWhi9AqOshZHy-15" target="d4oiWtsD0GuKBpQf_ANB-38" edge="1">
          <mxGeometry width="50" height="50" relative="1" as="geometry">
            <mxPoint x="70" y="730" as="sourcePoint" />
            <mxPoint x="150" y="410" as="targetPoint" />
            <Array as="points" />
          </mxGeometry>
        </mxCell>
        <mxCell id="d4oiWtsD0GuKBpQf_ANB-47" value="" style="endArrow=none;html=1;rounded=0;entryX=0;entryY=0.5;entryDx=0;entryDy=0;exitX=1;exitY=0.3333333333333333;exitDx=0;exitDy=0;exitPerimeter=0;endFill=0;" parent="1" source="lAVPG-hmWhi9AqOshZHy-15" target="m_-V9lRnGIA6JKJXaDJv-2" edge="1">
          <mxGeometry width="50" height="50" relative="1" as="geometry">
            <mxPoint x="80" y="350" as="sourcePoint" />
            <mxPoint x="190.31999999999994" y="915" as="targetPoint" />
            <Array as="points" />
          </mxGeometry>
        </mxCell>
        <mxCell id="d4oiWtsD0GuKBpQf_ANB-78" value="Punch Student ID to Attendance" style="ellipse;whiteSpace=wrap;html=1;" parent="1" vertex="1">
          <mxGeometry x="190.32" y="750" width="150" height="40" as="geometry" />
        </mxCell>
        <mxCell id="d4oiWtsD0GuKBpQf_ANB-79" value="Cancel Exam Schedule" style="ellipse;whiteSpace=wrap;html=1;" parent="1" vertex="1">
          <mxGeometry x="487.5" y="450" width="145" height="40" as="geometry" />
        </mxCell>
        <mxCell id="d4oiWtsD0GuKBpQf_ANB-81" value="Update Exam Schedule" style="ellipse;whiteSpace=wrap;html=1;" parent="1" vertex="1">
          <mxGeometry x="493.75" y="505" width="150" height="35" as="geometry" />
        </mxCell>
        <mxCell id="d4oiWtsD0GuKBpQf_ANB-96" value="" style="endArrow=none;html=1;rounded=0;entryX=0;entryY=0.5;entryDx=0;entryDy=0;exitX=1;exitY=0.3333333333333333;exitDx=0;exitDy=0;exitPerimeter=0;endFill=0;" parent="1" source="lAVPG-hmWhi9AqOshZHy-15" target="m_-V9lRnGIA6JKJXaDJv-3" edge="1">
          <mxGeometry width="50" height="50" relative="1" as="geometry">
            <mxPoint x="780" y="600" as="sourcePoint" />
            <mxPoint x="190.31999999999994" y="870" as="targetPoint" />
          </mxGeometry>
        </mxCell>
        <mxCell id="G-Lgrk7-vZlcEAVwouNc-2" value="Add Student to the Course" style="ellipse;whiteSpace=wrap;html=1;" parent="1" vertex="1">
          <mxGeometry x="175" y="350" width="155" height="40" as="geometry" />
        </mxCell>
        <mxCell id="G-Lgrk7-vZlcEAVwouNc-3" value="" style="endArrow=none;html=1;rounded=0;entryX=0;entryY=0.5;entryDx=0;entryDy=0;exitX=1;exitY=0.3333333333333333;exitDx=0;exitDy=0;exitPerimeter=0;endFill=0;" parent="1" source="lAVPG-hmWhi9AqOshZHy-15" target="G-Lgrk7-vZlcEAVwouNc-2" edge="1">
          <mxGeometry width="50" height="50" relative="1" as="geometry">
            <mxPoint x="70" y="730" as="sourcePoint" />
            <mxPoint x="170" y="325" as="targetPoint" />
          </mxGeometry>
        </mxCell>
        <mxCell id="-W-y0-7LprUPO_DgklRz-1" value="" style="ellipse;whiteSpace=wrap;html=1;" parent="1" vertex="1">
          <mxGeometry x="162.5" y="140" width="142.5" height="50" as="geometry" />
        </mxCell>
        <mxCell id="-W-y0-7LprUPO_DgklRz-8" value="" style="endArrow=none;html=1;rounded=0;exitX=1;exitY=0.3333333333333333;exitDx=0;exitDy=0;exitPerimeter=0;entryX=0;entryY=0.5;entryDx=0;entryDy=0;endFill=0;" parent="1" source="lAVPG-hmWhi9AqOshZHy-15" target="-W-y0-7LprUPO_DgklRz-1" edge="1">
          <mxGeometry width="50" height="50" relative="1" as="geometry">
            <mxPoint x="70" y="730" as="sourcePoint" />
            <mxPoint x="140" y="540" as="targetPoint" />
          </mxGeometry>
        </mxCell>
        <mxCell id="-W-y0-7LprUPO_DgklRz-12" value="Reset Password" style="ellipse;whiteSpace=wrap;html=1;" parent="1" vertex="1">
          <mxGeometry x="455" y="140" width="130" height="36.25" as="geometry" />
        </mxCell>
        <mxCell id="-W-y0-7LprUPO_DgklRz-13" value="&amp;lt;&amp;lt;extend&amp;gt;&amp;gt;" style="endArrow=open;endSize=12;dashed=1;html=1;rounded=0;exitX=0;exitY=0.5;exitDx=0;exitDy=0;entryX=1;entryY=0.5;entryDx=0;entryDy=0;" parent="1" source="-W-y0-7LprUPO_DgklRz-12" target="-W-y0-7LprUPO_DgklRz-1" edge="1">
          <mxGeometry width="160" relative="1" as="geometry">
            <mxPoint x="360" y="115" as="sourcePoint" />
            <mxPoint x="290" y="180" as="targetPoint" />
          </mxGeometry>
        </mxCell>
        <mxCell id="5Vf0oPMB8CiPGsSxuJf1-7" value="Verify related Student" style="ellipse;whiteSpace=wrap;html=1;" parent="1" vertex="1">
          <mxGeometry x="450" y="770" width="150" height="40" as="geometry" />
        </mxCell>
        <mxCell id="5Vf0oPMB8CiPGsSxuJf1-8" value="&amp;lt;&amp;lt;include&amp;gt;&amp;gt;" style="endArrow=open;endSize=12;dashed=1;html=1;rounded=0;exitX=1;exitY=0.5;exitDx=0;exitDy=0;entryX=0;entryY=0.5;entryDx=0;entryDy=0;" parent="1" source="d4oiWtsD0GuKBpQf_ANB-78" target="5Vf0oPMB8CiPGsSxuJf1-7" edge="1">
          <mxGeometry x="0.006" width="160" relative="1" as="geometry">
            <mxPoint x="319" y="607" as="sourcePoint" />
            <mxPoint x="440" y="810" as="targetPoint" />
            <mxPoint as="offset" />
          </mxGeometry>
        </mxCell>
        <mxCell id="Sosaidkj4-8t95hLzwu4-13" value="" style="endArrow=none;html=1;rounded=0;exitX=0;exitY=0.5;exitDx=0;exitDy=0;" parent="1" edge="1">
          <mxGeometry width="50" height="50" relative="1" as="geometry">
            <mxPoint x="162.5" y="164.33" as="sourcePoint" />
            <mxPoint x="305" y="164.33" as="targetPoint" />
          </mxGeometry>
        </mxCell>
        <mxCell id="Sosaidkj4-8t95hLzwu4-14" value="Login to Account&lt;br&gt;if forget password" style="edgeLabel;html=1;align=center;verticalAlign=middle;resizable=0;points=[];" parent="Sosaidkj4-8t95hLzwu4-13" vertex="1" connectable="0">
          <mxGeometry x="0.2591" relative="1" as="geometry">
            <mxPoint x="-19" y="1" as="offset" />
          </mxGeometry>
        </mxCell>
        <mxCell id="RUZR-YJ3Vn-f4wn_gmPG-1" value="Send System account&#39;s Credentials" style="ellipse;whiteSpace=wrap;html=1;" parent="1" vertex="1">
          <mxGeometry x="170.63" y="300" width="159.37" height="40" as="geometry" />
        </mxCell>
        <mxCell id="RUZR-YJ3Vn-f4wn_gmPG-2" value="" style="endArrow=none;html=1;rounded=0;exitX=1;exitY=0.3333333333333333;exitDx=0;exitDy=0;exitPerimeter=0;entryX=0;entryY=0.5;entryDx=0;entryDy=0;endFill=0;" parent="1" source="lAVPG-hmWhi9AqOshZHy-15" target="RUZR-YJ3Vn-f4wn_gmPG-1" edge="1">
          <mxGeometry width="50" height="50" relative="1" as="geometry">
            <mxPoint x="780" y="590" as="sourcePoint" />
            <mxPoint x="440" y="290" as="targetPoint" />
          </mxGeometry>
        </mxCell>
        <mxCell id="GJgH__e3tAiykHZOkwDM-1" value="Generate Payment Receipt" style="ellipse;whiteSpace=wrap;html=1;" parent="1" vertex="1">
          <mxGeometry x="190.32" y="800" width="156.25" height="40" as="geometry" />
        </mxCell>
        <mxCell id="CrqCy0Mkk3rUytjSSXYV-3" value="" style="endArrow=none;html=1;rounded=0;entryX=0;entryY=0.5;entryDx=0;entryDy=0;exitX=1;exitY=0.3333333333333333;exitDx=0;exitDy=0;exitPerimeter=0;endFill=0;" parent="1" source="lAVPG-hmWhi9AqOshZHy-15" target="qa61Tqf8aqytgliSW6bD-16" edge="1">
          <mxGeometry width="50" height="50" relative="1" as="geometry">
            <mxPoint x="100" y="740" as="sourcePoint" />
            <mxPoint x="175.83500000000004" y="613.99" as="targetPoint" />
          </mxGeometry>
        </mxCell>
        <mxCell id="CrqCy0Mkk3rUytjSSXYV-13" value="" style="endArrow=none;html=1;rounded=0;exitX=1;exitY=0.3333333333333333;exitDx=0;exitDy=0;exitPerimeter=0;entryX=0;entryY=0.5;entryDx=0;entryDy=0;endFill=0;" parent="1" source="lAVPG-hmWhi9AqOshZHy-15" target="qa61Tqf8aqytgliSW6bD-26" edge="1">
          <mxGeometry width="50" height="50" relative="1" as="geometry">
            <mxPoint x="100" y="740" as="sourcePoint" />
            <mxPoint x="197.04999999999995" y="807.3400000000001" as="targetPoint" />
          </mxGeometry>
        </mxCell>
        <mxCell id="uvBWuhWFLHVcGRgiDrpi-1" value="Add Repeat Exam Schedule" style="ellipse;whiteSpace=wrap;html=1;" parent="1" vertex="1">
          <mxGeometry x="180.32" y="640" width="160" height="40" as="geometry" />
        </mxCell>
        <mxCell id="BlMRCcmzzIhvfxpjQf3j-18" value="&amp;lt;&amp;lt;extend&amp;gt;&amp;gt;" style="endArrow=open;endSize=12;dashed=1;html=1;rounded=0;exitX=0;exitY=0.5;exitDx=0;exitDy=0;entryX=1;entryY=0;entryDx=0;entryDy=0;" parent="1" source="d4oiWtsD0GuKBpQf_ANB-79" target="qa61Tqf8aqytgliSW6bD-16" edge="1">
          <mxGeometry width="160" relative="1" as="geometry">
            <mxPoint x="320" y="368" as="sourcePoint" />
            <mxPoint x="243" y="410" as="targetPoint" />
          </mxGeometry>
        </mxCell>
        <mxCell id="BlMRCcmzzIhvfxpjQf3j-20" value="&amp;lt;&amp;lt;extend&amp;gt;&amp;gt;" style="endArrow=open;endSize=12;dashed=1;html=1;rounded=0;exitX=0;exitY=0.5;exitDx=0;exitDy=0;entryX=1;entryY=0.5;entryDx=0;entryDy=0;" parent="1" source="d4oiWtsD0GuKBpQf_ANB-81" target="qa61Tqf8aqytgliSW6bD-16" edge="1">
          <mxGeometry width="160" relative="1" as="geometry">
            <mxPoint x="320" y="368" as="sourcePoint" />
            <mxPoint x="243" y="410" as="targetPoint" />
          </mxGeometry>
        </mxCell>
        <mxCell id="BlMRCcmzzIhvfxpjQf3j-23" value="&amp;lt;&amp;lt;extend&amp;gt;&amp;gt;" style="endArrow=open;endSize=12;dashed=1;html=1;rounded=0;exitX=0;exitY=0.5;exitDx=0;exitDy=0;entryX=0.944;entryY=0.653;entryDx=0;entryDy=0;entryPerimeter=0;" parent="1" source="qa61Tqf8aqytgliSW6bD-20" target="d4oiWtsD0GuKBpQf_ANB-38" edge="1">
          <mxGeometry width="160" relative="1" as="geometry">
            <mxPoint x="522" y="564" as="sourcePoint" />
            <mxPoint x="612.7413879542867" y="675.510620223265" as="targetPoint" />
          </mxGeometry>
        </mxCell>
        <mxCell id="qa61Tqf8aqytgliSW6bD-3" value="Check the Student Data" style="ellipse;whiteSpace=wrap;html=1;" parent="1" vertex="1">
          <mxGeometry x="451.88" y="247.5" width="148.12" height="40" as="geometry" />
        </mxCell>
        <mxCell id="qa61Tqf8aqytgliSW6bD-4" value="Register Student for System" style="ellipse;whiteSpace=wrap;html=1;" parent="1" vertex="1">
          <mxGeometry x="168.75" y="247.5" width="161.25" height="42.5" as="geometry" />
        </mxCell>
        <mxCell id="qa61Tqf8aqytgliSW6bD-5" value="&amp;lt;&amp;lt;include&amp;gt;&amp;gt;" style="endArrow=open;endSize=12;dashed=1;html=1;rounded=0;entryX=0;entryY=0.5;entryDx=0;entryDy=0;" parent="1" source="qa61Tqf8aqytgliSW6bD-4" target="qa61Tqf8aqytgliSW6bD-3" edge="1">
          <mxGeometry width="160" relative="1" as="geometry">
            <mxPoint x="99.5" y="242.5" as="sourcePoint" />
            <mxPoint x="132.5" y="277.5" as="targetPoint" />
          </mxGeometry>
        </mxCell>
        <mxCell id="qa61Tqf8aqytgliSW6bD-6" value="" style="endArrow=none;html=1;rounded=0;entryX=0;entryY=0.5;entryDx=0;entryDy=0;exitX=1;exitY=0.3333333333333333;exitDx=0;exitDy=0;exitPerimeter=0;endFill=0;" parent="1" source="lAVPG-hmWhi9AqOshZHy-15" target="qa61Tqf8aqytgliSW6bD-4" edge="1">
          <mxGeometry width="50" height="50" relative="1" as="geometry">
            <mxPoint x="100" y="585" as="sourcePoint" />
            <mxPoint x="183" y="535" as="targetPoint" />
          </mxGeometry>
        </mxCell>
        <mxCell id="qa61Tqf8aqytgliSW6bD-7" value="Pay Full Course Payment by student" style="ellipse;whiteSpace=wrap;html=1;" parent="1" vertex="1">
          <mxGeometry x="450.94" y="300" width="179.06" height="50" as="geometry" />
        </mxCell>
        <mxCell id="qa61Tqf8aqytgliSW6bD-8" value="&amp;lt;&amp;lt;include&amp;gt;&amp;gt;" style="endArrow=open;endSize=12;dashed=1;html=1;rounded=0;entryX=0.034;entryY=0.74;entryDx=0;entryDy=0;entryPerimeter=0;exitX=1;exitY=0.5;exitDx=0;exitDy=0;" parent="1" source="G-Lgrk7-vZlcEAVwouNc-2" target="qa61Tqf8aqytgliSW6bD-7" edge="1">
          <mxGeometry width="160" relative="1" as="geometry">
            <mxPoint x="344.72467559247127" y="500.00169945660014" as="sourcePoint" />
            <mxPoint x="176.87" y="323" as="targetPoint" />
          </mxGeometry>
        </mxCell>
        <mxCell id="qa61Tqf8aqytgliSW6bD-10" value="Update Batch" style="ellipse;whiteSpace=wrap;html=1;" parent="1" vertex="1">
          <mxGeometry x="414" y="370" width="135" height="40" as="geometry" />
        </mxCell>
        <mxCell id="qa61Tqf8aqytgliSW6bD-11" value="&amp;lt;&amp;lt;extend&amp;gt;&amp;gt;" style="endArrow=open;endSize=12;dashed=1;html=1;rounded=0;exitX=0;exitY=0.5;exitDx=0;exitDy=0;entryX=1;entryY=0.5;entryDx=0;entryDy=0;" parent="1" source="qa61Tqf8aqytgliSW6bD-10" target="d4oiWtsD0GuKBpQf_ANB-36" edge="1">
          <mxGeometry width="160" relative="1" as="geometry">
            <mxPoint x="465" y="320" as="sourcePoint" />
            <mxPoint x="310" y="420" as="targetPoint" />
          </mxGeometry>
        </mxCell>
        <mxCell id="qa61Tqf8aqytgliSW6bD-14" value="Update Student/Teacher Profile Details" style="ellipse;whiteSpace=wrap;html=1;" parent="1" vertex="1">
          <mxGeometry x="170.63" y="460" width="179.37" height="60" as="geometry" />
        </mxCell>
        <mxCell id="qa61Tqf8aqytgliSW6bD-15" value="" style="endArrow=none;html=1;rounded=0;entryX=0;entryY=0.5;entryDx=0;entryDy=0;exitX=1;exitY=0.3333333333333333;exitDx=0;exitDy=0;exitPerimeter=0;endFill=0;" parent="1" source="lAVPG-hmWhi9AqOshZHy-15" target="qa61Tqf8aqytgliSW6bD-14" edge="1">
          <mxGeometry width="50" height="50" relative="1" as="geometry">
            <mxPoint x="100" y="585" as="sourcePoint" />
            <mxPoint x="185" y="380" as="targetPoint" />
          </mxGeometry>
        </mxCell>
        <mxCell id="qa61Tqf8aqytgliSW6bD-16" value="Add Exam Schedule" style="ellipse;whiteSpace=wrap;html=1;" parent="1" vertex="1">
          <mxGeometry x="176.87" y="530" width="145" height="40" as="geometry" />
        </mxCell>
        <mxCell id="qa61Tqf8aqytgliSW6bD-20" value="Update Exam Results" style="ellipse;whiteSpace=wrap;html=1;" parent="1" vertex="1">
          <mxGeometry x="487.5" y="555" width="150" height="35" as="geometry" />
        </mxCell>
        <mxCell id="qa61Tqf8aqytgliSW6bD-21" value="" style="endArrow=none;html=1;rounded=0;entryX=0;entryY=0.5;entryDx=0;entryDy=0;exitX=1;exitY=0.3333333333333333;exitDx=0;exitDy=0;exitPerimeter=0;endFill=0;" parent="1" source="lAVPG-hmWhi9AqOshZHy-15" target="uvBWuhWFLHVcGRgiDrpi-1" edge="1">
          <mxGeometry width="50" height="50" relative="1" as="geometry">
            <mxPoint x="100" y="585" as="sourcePoint" />
            <mxPoint x="185" y="615" as="targetPoint" />
            <Array as="points" />
          </mxGeometry>
        </mxCell>
        <mxCell id="qa61Tqf8aqytgliSW6bD-22" value="Cancel Repeat Exam Schedule" style="ellipse;whiteSpace=wrap;html=1;" parent="1" vertex="1">
          <mxGeometry x="585" y="590" width="145" height="50" as="geometry" />
        </mxCell>
        <mxCell id="qa61Tqf8aqytgliSW6bD-23" value="Update Repeat Exam Schedule" style="ellipse;whiteSpace=wrap;html=1;" parent="1" vertex="1">
          <mxGeometry x="585" y="645" width="150" height="50" as="geometry" />
        </mxCell>
        <mxCell id="qa61Tqf8aqytgliSW6bD-24" value="&amp;lt;&amp;lt;extend&amp;gt;&amp;gt;" style="endArrow=open;endSize=12;dashed=1;html=1;rounded=0;exitX=0;exitY=0.5;exitDx=0;exitDy=0;entryX=0.93;entryY=0.202;entryDx=0;entryDy=0;entryPerimeter=0;" parent="1" source="qa61Tqf8aqytgliSW6bD-22" target="uvBWuhWFLHVcGRgiDrpi-1" edge="1">
          <mxGeometry width="160" relative="1" as="geometry">
            <mxPoint x="360" y="483" as="sourcePoint" />
            <mxPoint x="340" y="661" as="targetPoint" />
          </mxGeometry>
        </mxCell>
        <mxCell id="qa61Tqf8aqytgliSW6bD-25" value="&amp;lt;&amp;lt;extend&amp;gt;&amp;gt;" style="endArrow=open;endSize=12;dashed=1;html=1;rounded=0;exitX=0;exitY=0.5;exitDx=0;exitDy=0;entryX=0.943;entryY=0.694;entryDx=0;entryDy=0;entryPerimeter=0;" parent="1" source="qa61Tqf8aqytgliSW6bD-23" target="uvBWuhWFLHVcGRgiDrpi-1" edge="1">
          <mxGeometry width="160" relative="1" as="geometry">
            <mxPoint x="360" y="483" as="sourcePoint" />
            <mxPoint x="340" y="670" as="targetPoint" />
          </mxGeometry>
        </mxCell>
        <mxCell id="qa61Tqf8aqytgliSW6bD-26" value="Add New Course" style="ellipse;whiteSpace=wrap;html=1;" parent="1" vertex="1">
          <mxGeometry x="185.32" y="695" width="150" height="40" as="geometry" />
        </mxCell>
        <mxCell id="qa61Tqf8aqytgliSW6bD-27" value="Update Course" style="ellipse;whiteSpace=wrap;html=1;" parent="1" vertex="1">
          <mxGeometry x="445" y="700" width="150" height="40" as="geometry" />
        </mxCell>
        <mxCell id="qa61Tqf8aqytgliSW6bD-29" value="&amp;lt;&amp;lt;extend&amp;gt;&amp;gt;" style="endArrow=open;endSize=12;dashed=1;html=1;rounded=0;exitX=0;exitY=0.5;exitDx=0;exitDy=0;entryX=1;entryY=0.5;entryDx=0;entryDy=0;" parent="1" source="qa61Tqf8aqytgliSW6bD-27" target="qa61Tqf8aqytgliSW6bD-26" edge="1">
          <mxGeometry width="160" relative="1" as="geometry">
            <mxPoint x="595" y="625" as="sourcePoint" />
            <mxPoint x="339" y="668" as="targetPoint" />
          </mxGeometry>
        </mxCell>
        <mxCell id="2HieOCD1aXQ69Wx8LXbe-1" value="Pay Full Course Payment by student" style="ellipse;whiteSpace=wrap;html=1;" parent="1" vertex="1">
          <mxGeometry x="450" y="820" width="179.06" height="50" as="geometry" />
        </mxCell>
        <mxCell id="2HieOCD1aXQ69Wx8LXbe-2" value="&amp;lt;&amp;lt;include&amp;gt;&amp;gt;" style="endArrow=open;endSize=12;dashed=1;html=1;rounded=0;entryX=0;entryY=0.5;entryDx=0;entryDy=0;exitX=1;exitY=0.5;exitDx=0;exitDy=0;" parent="1" source="GJgH__e3tAiykHZOkwDM-1" target="2HieOCD1aXQ69Wx8LXbe-1" edge="1">
          <mxGeometry width="160" relative="1" as="geometry">
            <mxPoint x="360" y="900" as="sourcePoint" />
            <mxPoint x="206.87" y="853" as="targetPoint" />
          </mxGeometry>
        </mxCell>
        <mxCell id="m_-V9lRnGIA6JKJXaDJv-1" value="View Feedbacks" style="ellipse;whiteSpace=wrap;html=1;" parent="1" vertex="1">
          <mxGeometry x="193.45" y="975" width="150" height="45" as="geometry" />
        </mxCell>
        <mxCell id="m_-V9lRnGIA6JKJXaDJv-2" value="Add Messages" style="ellipse;whiteSpace=wrap;html=1;" parent="1" vertex="1">
          <mxGeometry x="190.32" y="910" width="150" height="40" as="geometry" />
        </mxCell>
        <mxCell id="m_-V9lRnGIA6JKJXaDJv-3" value="Add New Exam" style="ellipse;whiteSpace=wrap;html=1;" parent="1" vertex="1">
          <mxGeometry x="190.32" y="850" width="150" height="40" as="geometry" />
        </mxCell>
        <mxCell id="m_-V9lRnGIA6JKJXaDJv-4" value="Update Exam Details" style="ellipse;whiteSpace=wrap;html=1;" parent="1" vertex="1">
          <mxGeometry x="490.47" y="880" width="159.53" height="40" as="geometry" />
        </mxCell>
        <mxCell id="m_-V9lRnGIA6JKJXaDJv-6" value="&amp;lt;&amp;lt;extend&amp;gt;&amp;gt;" style="endArrow=open;endSize=12;dashed=1;html=1;rounded=0;exitX=0;exitY=0.5;exitDx=0;exitDy=0;" parent="1" source="m_-V9lRnGIA6JKJXaDJv-4" target="m_-V9lRnGIA6JKJXaDJv-3" edge="1">
          <mxGeometry width="160" relative="1" as="geometry">
            <mxPoint x="134.5" y="529.25" as="sourcePoint" />
            <mxPoint x="340" y="875" as="targetPoint" />
          </mxGeometry>
        </mxCell>
        <mxCell id="m_-V9lRnGIA6JKJXaDJv-9" value="Update Message" style="ellipse;whiteSpace=wrap;html=1;" parent="1" vertex="1">
          <mxGeometry x="490.15" y="930" width="109.85" height="40" as="geometry" />
        </mxCell>
        <mxCell id="m_-V9lRnGIA6JKJXaDJv-10" value="&amp;lt;&amp;lt;extend&amp;gt;&amp;gt;" style="endArrow=open;endSize=12;dashed=1;html=1;rounded=0;exitX=0;exitY=0.5;exitDx=0;exitDy=0;entryX=1;entryY=0.5;entryDx=0;entryDy=0;" parent="1" source="m_-V9lRnGIA6JKJXaDJv-9" target="m_-V9lRnGIA6JKJXaDJv-2" edge="1">
          <mxGeometry width="160" relative="1" as="geometry">
            <mxPoint x="134.18" y="579.25" as="sourcePoint" />
            <mxPoint x="329.99999999999994" y="970" as="targetPoint" />
          </mxGeometry>
        </mxCell>
        <mxCell id="m_-V9lRnGIA6JKJXaDJv-11" value="Delete Message" style="ellipse;whiteSpace=wrap;html=1;" parent="1" vertex="1">
          <mxGeometry x="475.15" y="980" width="109.85" height="40" as="geometry" />
        </mxCell>
        <mxCell id="m_-V9lRnGIA6JKJXaDJv-12" value="&amp;lt;&amp;lt;extend&amp;gt;&amp;gt;" style="endArrow=open;endSize=12;dashed=1;html=1;rounded=0;exitX=0;exitY=0;exitDx=0;exitDy=0;entryX=0.939;entryY=0.823;entryDx=0;entryDy=0;entryPerimeter=0;" parent="1" source="m_-V9lRnGIA6JKJXaDJv-11" target="m_-V9lRnGIA6JKJXaDJv-2" edge="1">
          <mxGeometry width="160" relative="1" as="geometry">
            <mxPoint x="500" y="960" as="sourcePoint" />
            <mxPoint x="350" y="940" as="targetPoint" />
          </mxGeometry>
        </mxCell>
        <mxCell id="m_-V9lRnGIA6JKJXaDJv-13" value="" style="endArrow=none;html=1;rounded=0;entryX=0;entryY=0.5;entryDx=0;entryDy=0;exitX=1;exitY=0.3333333333333333;exitDx=0;exitDy=0;exitPerimeter=0;endFill=0;" parent="1" source="lAVPG-hmWhi9AqOshZHy-15" target="m_-V9lRnGIA6JKJXaDJv-1" edge="1">
          <mxGeometry width="50" height="50" relative="1" as="geometry">
            <mxPoint x="100" y="585" as="sourcePoint" />
            <mxPoint x="200" y="940" as="targetPoint" />
            <Array as="points" />
          </mxGeometry>
        </mxCell>
        <mxCell id="Kl0XwtvXfgsX_1_L7p5X-1" value="Add Course Schedule" style="ellipse;whiteSpace=wrap;html=1;" parent="1" vertex="1">
          <mxGeometry x="190.32" y="1040" width="150" height="40" as="geometry" />
        </mxCell>
        <mxCell id="Kl0XwtvXfgsX_1_L7p5X-2" value="Cancel Course Schedule" style="ellipse;whiteSpace=wrap;html=1;" parent="1" vertex="1">
          <mxGeometry x="482.5" y="1070" width="150" height="30" as="geometry" />
        </mxCell>
        <mxCell id="Kl0XwtvXfgsX_1_L7p5X-3" value="Update Course Schedule" style="ellipse;whiteSpace=wrap;html=1;" parent="1" vertex="1">
          <mxGeometry x="482.5" y="1030" width="150" height="30" as="geometry" />
        </mxCell>
        <mxCell id="Kl0XwtvXfgsX_1_L7p5X-4" value="&amp;lt;&amp;lt;extend&amp;gt;&amp;gt;" style="endArrow=open;endSize=12;dashed=1;html=1;rounded=0;exitX=0;exitY=0.5;exitDx=0;exitDy=0;entryX=0.946;entryY=0.361;entryDx=0;entryDy=0;entryPerimeter=0;" parent="1" source="Kl0XwtvXfgsX_1_L7p5X-3" target="Kl0XwtvXfgsX_1_L7p5X-1" edge="1">
          <mxGeometry width="160" relative="1" as="geometry">
            <mxPoint x="688.62" y="1238" as="sourcePoint" />
            <mxPoint x="472.5" y="1300" as="targetPoint" />
          </mxGeometry>
        </mxCell>
        <mxCell id="Kl0XwtvXfgsX_1_L7p5X-5" value="&amp;lt;&amp;lt;extend&amp;gt;&amp;gt;" style="endArrow=open;endSize=12;dashed=1;html=1;rounded=0;exitX=0;exitY=0.5;exitDx=0;exitDy=0;" parent="1" source="Kl0XwtvXfgsX_1_L7p5X-2" target="Kl0XwtvXfgsX_1_L7p5X-1" edge="1">
          <mxGeometry width="160" relative="1" as="geometry">
            <mxPoint x="445.62" y="1065" as="sourcePoint" />
            <mxPoint x="341.62" y="1074" as="targetPoint" />
          </mxGeometry>
        </mxCell>
        <mxCell id="Kl0XwtvXfgsX_1_L7p5X-6" value="" style="endArrow=none;html=1;rounded=0;entryX=0;entryY=0.5;entryDx=0;entryDy=0;exitX=1;exitY=0.3333333333333333;exitDx=0;exitDy=0;exitPerimeter=0;endFill=0;" parent="1" source="lAVPG-hmWhi9AqOshZHy-15" target="Kl0XwtvXfgsX_1_L7p5X-1" edge="1">
          <mxGeometry width="50" height="50" relative="1" as="geometry">
            <mxPoint x="135.62" y="1130" as="sourcePoint" />
            <mxPoint x="195.62" y="1020" as="targetPoint" />
          </mxGeometry>
        </mxCell>
      </root>
    </mxGraphModel>
  </diagram>
  <diagram id="6KQvO409arrPqItOnP81" name="Page-2">
    <mxGraphModel dx="1032" dy="595" grid="1" gridSize="10" guides="1" tooltips="1" connect="1" arrows="1" fold="1" page="1" pageScale="1" pageWidth="827" pageHeight="1169" math="0" shadow="0">
      <root>
        <mxCell id="0" />
        <mxCell id="1" parent="0" />
        <mxCell id="E8DwHQlJC5ex613qpT7E-1" value="" style="whiteSpace=wrap;html=1;" parent="1" vertex="1">
          <mxGeometry x="94" y="40" width="640" height="1080" as="geometry" />
        </mxCell>
        <mxCell id="f1UPAbidQjQtPA5pgHU--8" value="Admin" style="shape=umlActor;verticalLabelPosition=bottom;verticalAlign=top;html=1;outlineConnect=0;" parent="1" vertex="1">
          <mxGeometry x="30" y="180" width="30" height="60" as="geometry" />
        </mxCell>
        <mxCell id="f1UPAbidQjQtPA5pgHU--51" value="Teacher" style="shape=umlActor;verticalLabelPosition=bottom;verticalAlign=top;html=1;outlineConnect=0;" parent="1" vertex="1">
          <mxGeometry x="30" y="590" width="30" height="60" as="geometry" />
        </mxCell>
        <mxCell id="f1UPAbidQjQtPA5pgHU--58" value="Generate Students Exam Result Report" style="ellipse;whiteSpace=wrap;html=1;" parent="1" vertex="1">
          <mxGeometry x="165.94" y="1000" width="145" height="50" as="geometry" />
        </mxCell>
        <mxCell id="f1UPAbidQjQtPA5pgHU--59" value="" style="endArrow=none;html=1;rounded=0;exitX=0;exitY=0.5;exitDx=0;exitDy=0;entryX=1;entryY=0.3333333333333333;entryDx=0;entryDy=0;entryPerimeter=0;endFill=0;" parent="1" source="f1UPAbidQjQtPA5pgHU--58" target="f1UPAbidQjQtPA5pgHU--51" edge="1">
          <mxGeometry width="50" height="50" relative="1" as="geometry">
            <mxPoint x="330" y="668" as="sourcePoint" />
            <mxPoint x="241.8900000000001" y="997" as="targetPoint" />
          </mxGeometry>
        </mxCell>
        <mxCell id="f1UPAbidQjQtPA5pgHU--60" value="View Students Results" style="ellipse;whiteSpace=wrap;html=1;" parent="1" vertex="1">
          <mxGeometry x="180.94" y="840" width="168.12" height="40" as="geometry" />
        </mxCell>
        <mxCell id="f1UPAbidQjQtPA5pgHU--61" value="" style="endArrow=none;html=1;rounded=0;entryX=0;entryY=0.5;entryDx=0;entryDy=0;exitX=1;exitY=0.3333333333333333;exitDx=0;exitDy=0;exitPerimeter=0;endFill=0;" parent="1" source="f1UPAbidQjQtPA5pgHU--51" target="H8RiwdQ8I2OH8gTgz3R2-3" edge="1">
          <mxGeometry width="50" height="50" relative="1" as="geometry">
            <mxPoint x="80" y="350" as="sourcePoint" />
            <mxPoint x="213.75" y="985" as="targetPoint" />
          </mxGeometry>
        </mxCell>
        <mxCell id="f1UPAbidQjQtPA5pgHU--62" value="" style="endArrow=none;html=1;rounded=0;entryX=0;entryY=0.5;entryDx=0;entryDy=0;exitX=1;exitY=0.3333333333333333;exitDx=0;exitDy=0;exitPerimeter=0;endFill=0;" parent="1" source="f1UPAbidQjQtPA5pgHU--51" target="f1UPAbidQjQtPA5pgHU--60" edge="1">
          <mxGeometry width="50" height="50" relative="1" as="geometry">
            <mxPoint x="80" y="640" as="sourcePoint" />
            <mxPoint x="145" y="695" as="targetPoint" />
          </mxGeometry>
        </mxCell>
        <mxCell id="f1UPAbidQjQtPA5pgHU--78" value="Generate Students&lt;br&gt;&amp;nbsp;Data Report" style="ellipse;whiteSpace=wrap;html=1;" parent="1" vertex="1">
          <mxGeometry x="124.38" y="125" width="150.62" height="45" as="geometry" />
        </mxCell>
        <mxCell id="f1UPAbidQjQtPA5pgHU--79" value="Generate Exams Results Report" style="ellipse;whiteSpace=wrap;html=1;" parent="1" vertex="1">
          <mxGeometry x="130" y="185" width="130" height="50" as="geometry" />
        </mxCell>
        <mxCell id="f1UPAbidQjQtPA5pgHU--80" value="Generate&amp;nbsp;&lt;br&gt;&amp;nbsp;Exam Schedule Report Date Wise" style="ellipse;whiteSpace=wrap;html=1;" parent="1" vertex="1">
          <mxGeometry x="170" y="240" width="240" height="50" as="geometry" />
        </mxCell>
        <mxCell id="WMP3RVbNXOQtUBli4okn-2" value="Upload Lecture Notes/Past Papers" style="ellipse;whiteSpace=wrap;html=1;" parent="1" vertex="1">
          <mxGeometry x="205" y="570" width="180" height="40" as="geometry" />
        </mxCell>
        <mxCell id="Td_YHxloB1mKPPeT8f6f-1" value="" style="endArrow=none;html=1;rounded=0;entryX=0;entryY=0.5;entryDx=0;entryDy=0;exitX=1;exitY=0.3333333333333333;exitDx=0;exitDy=0;exitPerimeter=0;endFill=0;" parent="1" source="f1UPAbidQjQtPA5pgHU--51" target="WMP3RVbNXOQtUBli4okn-2" edge="1">
          <mxGeometry width="50" height="50" relative="1" as="geometry">
            <mxPoint x="70" y="350" as="sourcePoint" />
            <mxPoint x="260" y="480" as="targetPoint" />
          </mxGeometry>
        </mxCell>
        <mxCell id="tNw9qUuyQfRYMWhJqV51-1" value="Remove Lecture Notes/Past Papers" style="ellipse;whiteSpace=wrap;html=1;" parent="1" vertex="1">
          <mxGeometry x="500.94" y="590" width="189.38" height="45" as="geometry" />
        </mxCell>
        <mxCell id="tNw9qUuyQfRYMWhJqV51-5" value="" style="endArrow=none;html=1;rounded=0;entryX=0.058;entryY=0.732;entryDx=0;entryDy=0;exitX=1;exitY=0.3333333333333333;exitDx=0;exitDy=0;exitPerimeter=0;endFill=0;entryPerimeter=0;" parent="1" source="f1UPAbidQjQtPA5pgHU--51" target="tNw9qUuyQfRYMWhJqV51-1" edge="1">
          <mxGeometry width="50" height="50" relative="1" as="geometry">
            <mxPoint x="70" y="350" as="sourcePoint" />
            <mxPoint x="178" y="535" as="targetPoint" />
          </mxGeometry>
        </mxCell>
        <mxCell id="CdOfc2Bk8GT06FuDnagw-1" value="Update Course Schedule" style="ellipse;whiteSpace=wrap;html=1;" parent="1" vertex="1">
          <mxGeometry x="513.13" y="640" width="165" height="40" as="geometry" />
        </mxCell>
        <mxCell id="CdOfc2Bk8GT06FuDnagw-3" value="" style="endArrow=none;html=1;rounded=0;entryX=0;entryY=0.5;entryDx=0;entryDy=0;exitX=1;exitY=0.3333333333333333;exitDx=0;exitDy=0;exitPerimeter=0;endFill=0;" parent="1" source="f1UPAbidQjQtPA5pgHU--51" target="CdOfc2Bk8GT06FuDnagw-1" edge="1">
          <mxGeometry width="50" height="50" relative="1" as="geometry">
            <mxPoint x="60" y="340" as="sourcePoint" />
            <mxPoint x="179" y="565" as="targetPoint" />
            <Array as="points">
              <mxPoint x="320" y="640" />
            </Array>
          </mxGeometry>
        </mxCell>
        <mxCell id="DsIXUR7cAcQY87RhpfkB-2" value="Register Teacher/Admin to the system" style="ellipse;whiteSpace=wrap;html=1;" parent="1" vertex="1">
          <mxGeometry x="135" y="60" width="160" height="60" as="geometry" />
        </mxCell>
        <mxCell id="DsIXUR7cAcQY87RhpfkB-5" value="" style="endArrow=none;html=1;rounded=0;entryX=0;entryY=0.5;entryDx=0;entryDy=0;exitX=1;exitY=0.3333333333333333;exitDx=0;exitDy=0;exitPerimeter=0;endFill=0;" parent="1" source="f1UPAbidQjQtPA5pgHU--8" target="DsIXUR7cAcQY87RhpfkB-2" edge="1">
          <mxGeometry width="50" height="50" relative="1" as="geometry">
            <mxPoint x="50" y="200" as="sourcePoint" />
            <mxPoint x="699" y="260" as="targetPoint" />
          </mxGeometry>
        </mxCell>
        <mxCell id="6R2Ed2mqX88lmu-_MjYo-1" value="View Course Schedule" style="ellipse;whiteSpace=wrap;html=1;" parent="1" vertex="1">
          <mxGeometry x="180.78" y="640" width="169.22" height="40" as="geometry" />
        </mxCell>
        <mxCell id="6R2Ed2mqX88lmu-_MjYo-2" value="" style="endArrow=none;html=1;rounded=0;exitX=1;exitY=0.3333333333333333;exitDx=0;exitDy=0;exitPerimeter=0;entryX=0;entryY=0.5;entryDx=0;entryDy=0;endFill=0;" parent="1" source="f1UPAbidQjQtPA5pgHU--51" target="6R2Ed2mqX88lmu-_MjYo-1" edge="1">
          <mxGeometry width="50" height="50" relative="1" as="geometry">
            <mxPoint x="430" y="640" as="sourcePoint" />
            <mxPoint x="480" y="590" as="targetPoint" />
          </mxGeometry>
        </mxCell>
        <mxCell id="Hs3roiUV1qv6tOu6VW8x-1" value="Generate Students&lt;br&gt;&amp;nbsp;attendance Report Date Wise" style="ellipse;whiteSpace=wrap;html=1;" parent="1" vertex="1">
          <mxGeometry x="243.14" y="300" width="222.49" height="50" as="geometry" />
        </mxCell>
        <mxCell id="qU9vDgpiJi2M7LIqRBSt-6" value="Upload the Course Work" style="ellipse;whiteSpace=wrap;html=1;" parent="1" vertex="1">
          <mxGeometry x="175.94" y="690" width="174.06" height="40" as="geometry" />
        </mxCell>
        <mxCell id="vTkrHTB3dp8tZdUJ9Plq-1" value="" style="endArrow=none;html=1;rounded=0;exitX=1;exitY=0.3333333333333333;exitDx=0;exitDy=0;exitPerimeter=0;entryX=0;entryY=0.5;entryDx=0;entryDy=0;endFill=0;" parent="1" source="f1UPAbidQjQtPA5pgHU--51" target="qU9vDgpiJi2M7LIqRBSt-6" edge="1">
          <mxGeometry width="50" height="50" relative="1" as="geometry">
            <mxPoint x="70" y="350" as="sourcePoint" />
            <mxPoint x="182" y="558" as="targetPoint" />
          </mxGeometry>
        </mxCell>
        <mxCell id="vTkrHTB3dp8tZdUJ9Plq-2" value="Send Feedbacks" style="ellipse;whiteSpace=wrap;html=1;" parent="1" vertex="1">
          <mxGeometry x="178.44" y="740" width="173.13" height="40" as="geometry" />
        </mxCell>
        <mxCell id="vTkrHTB3dp8tZdUJ9Plq-3" value="" style="endArrow=none;html=1;rounded=0;exitX=1;exitY=0.3333333333333333;exitDx=0;exitDy=0;exitPerimeter=0;entryX=0;entryY=0.5;entryDx=0;entryDy=0;endFill=0;" parent="1" source="f1UPAbidQjQtPA5pgHU--51" target="vTkrHTB3dp8tZdUJ9Plq-2" edge="1">
          <mxGeometry width="50" height="50" relative="1" as="geometry">
            <mxPoint x="70" y="350" as="sourcePoint" />
            <mxPoint x="182" y="609" as="targetPoint" />
          </mxGeometry>
        </mxCell>
        <mxCell id="V_p3UmMU-YHYxCKXaokQ-5" value="View Student attendance" style="ellipse;whiteSpace=wrap;html=1;" parent="1" vertex="1">
          <mxGeometry x="180.78" y="790" width="168.44" height="40" as="geometry" />
        </mxCell>
        <mxCell id="V_p3UmMU-YHYxCKXaokQ-6" value="" style="endArrow=none;html=1;rounded=0;exitX=1;exitY=0.3333333333333333;exitDx=0;exitDy=0;exitPerimeter=0;entryX=0;entryY=0.5;entryDx=0;entryDy=0;endFill=0;" parent="1" source="f1UPAbidQjQtPA5pgHU--51" target="V_p3UmMU-YHYxCKXaokQ-5" edge="1">
          <mxGeometry width="50" height="50" relative="1" as="geometry">
            <mxPoint x="70" y="350" as="sourcePoint" />
            <mxPoint x="192" y="640" as="targetPoint" />
          </mxGeometry>
        </mxCell>
        <mxCell id="Qv0DfQWDYl0LangmuRQz-1" value="Logout" style="ellipse;whiteSpace=wrap;html=1;" parent="1" vertex="1">
          <mxGeometry x="110" y="380" width="110" height="30" as="geometry" />
        </mxCell>
        <mxCell id="Qv0DfQWDYl0LangmuRQz-2" value="Logout" style="ellipse;whiteSpace=wrap;html=1;" parent="1" vertex="1">
          <mxGeometry x="150.94" y="1070" width="160" height="30" as="geometry" />
        </mxCell>
        <mxCell id="Qv0DfQWDYl0LangmuRQz-3" value="" style="endArrow=none;html=1;rounded=0;exitX=1;exitY=0.3333333333333333;exitDx=0;exitDy=0;exitPerimeter=0;endFill=0;" parent="1" source="f1UPAbidQjQtPA5pgHU--51" edge="1">
          <mxGeometry width="50" height="50" relative="1" as="geometry">
            <mxPoint x="70" y="350" as="sourcePoint" />
            <mxPoint x="160" y="1080" as="targetPoint" />
            <Array as="points">
              <mxPoint x="160" y="1080" />
            </Array>
          </mxGeometry>
        </mxCell>
        <mxCell id="y3JDT4HgSHLpbU3gOVis-1" value="&amp;lt;&amp;lt;include&amp;gt;&amp;gt;" style="endArrow=open;endSize=12;dashed=1;html=1;rounded=0;entryX=0;entryY=0.5;entryDx=0;entryDy=0;exitX=1;exitY=0.5;exitDx=0;exitDy=0;" parent="1" source="DsIXUR7cAcQY87RhpfkB-2" target="y3JDT4HgSHLpbU3gOVis-2" edge="1">
          <mxGeometry width="160" relative="1" as="geometry">
            <mxPoint x="609" y="227" as="sourcePoint" />
            <mxPoint x="600" y="200" as="targetPoint" />
          </mxGeometry>
        </mxCell>
        <mxCell id="y3JDT4HgSHLpbU3gOVis-2" value="Add Techer/ Admin Details" style="ellipse;whiteSpace=wrap;html=1;" parent="1" vertex="1">
          <mxGeometry x="400" y="60" width="150" height="40" as="geometry" />
        </mxCell>
        <mxCell id="D8P5CdSjj2wefIHoeFIx-5" value="" style="endArrow=none;html=1;rounded=0;exitX=1;exitY=0.3333333333333333;exitDx=0;exitDy=0;exitPerimeter=0;endFill=0;entryX=0;entryY=0.5;entryDx=0;entryDy=0;" parent="1" source="f1UPAbidQjQtPA5pgHU--8" target="f1UPAbidQjQtPA5pgHU--78" edge="1">
          <mxGeometry width="50" height="50" relative="1" as="geometry">
            <mxPoint x="60" y="210" as="sourcePoint" />
            <mxPoint x="114" y="150" as="targetPoint" />
          </mxGeometry>
        </mxCell>
        <mxCell id="tgdSy5Tl4agiCcORfq1y-1" value="Login to Account" style="ellipse;whiteSpace=wrap;html=1;" parent="1" vertex="1">
          <mxGeometry x="172.19" y="420" width="132.5" height="35" as="geometry" />
        </mxCell>
        <mxCell id="tgdSy5Tl4agiCcORfq1y-2" value="Verify User" style="ellipse;whiteSpace=wrap;html=1;" parent="1" vertex="1">
          <mxGeometry x="469.69" y="420" width="130" height="35" as="geometry" />
        </mxCell>
        <mxCell id="tgdSy5Tl4agiCcORfq1y-3" value="" style="endArrow=none;html=1;rounded=0;endFill=0;entryX=0;entryY=0.5;entryDx=0;entryDy=0;exitX=1;exitY=0.3333333333333333;exitDx=0;exitDy=0;exitPerimeter=0;" parent="1" source="f1UPAbidQjQtPA5pgHU--51" target="tgdSy5Tl4agiCcORfq1y-1" edge="1">
          <mxGeometry width="50" height="50" relative="1" as="geometry">
            <mxPoint x="60" y="610" as="sourcePoint" />
            <mxPoint x="194.69" y="515" as="targetPoint" />
          </mxGeometry>
        </mxCell>
        <mxCell id="tgdSy5Tl4agiCcORfq1y-4" value="" style="endArrow=none;html=1;rounded=0;entryX=0;entryY=0.5;entryDx=0;entryDy=0;endFill=0;" parent="1" target="tgdSy5Tl4agiCcORfq1y-6" edge="1">
          <mxGeometry width="50" height="50" relative="1" as="geometry">
            <mxPoint x="60" y="610" as="sourcePoint" />
            <mxPoint x="514.69" y="625" as="targetPoint" />
          </mxGeometry>
        </mxCell>
        <mxCell id="tgdSy5Tl4agiCcORfq1y-5" value="&amp;lt;&amp;lt;include&amp;gt;&amp;gt;" style="endArrow=open;endSize=12;dashed=1;html=1;rounded=0;exitX=1;exitY=0.5;exitDx=0;exitDy=0;" parent="1" source="tgdSy5Tl4agiCcORfq1y-1" target="tgdSy5Tl4agiCcORfq1y-2" edge="1">
          <mxGeometry width="160" relative="1" as="geometry">
            <mxPoint x="274.69" y="605" as="sourcePoint" />
            <mxPoint x="434.69" y="440" as="targetPoint" />
            <Array as="points" />
          </mxGeometry>
        </mxCell>
        <mxCell id="tgdSy5Tl4agiCcORfq1y-6" value="Change Password" style="ellipse;whiteSpace=wrap;html=1;" parent="1" vertex="1">
          <mxGeometry x="180.78" y="535" width="142.5" height="30" as="geometry" />
        </mxCell>
        <mxCell id="tgdSy5Tl4agiCcORfq1y-7" value="Verify Current Password" style="ellipse;whiteSpace=wrap;html=1;" parent="1" vertex="1">
          <mxGeometry x="465.63" y="535" width="150" height="30" as="geometry" />
        </mxCell>
        <mxCell id="tgdSy5Tl4agiCcORfq1y-8" value="&amp;lt;&amp;lt;include&amp;gt;&amp;gt;" style="endArrow=open;endSize=12;dashed=1;html=1;rounded=0;entryX=0;entryY=0.5;entryDx=0;entryDy=0;exitX=1;exitY=0.5;exitDx=0;exitDy=0;" parent="1" source="tgdSy5Tl4agiCcORfq1y-6" target="tgdSy5Tl4agiCcORfq1y-7" edge="1">
          <mxGeometry x="0.006" width="160" relative="1" as="geometry">
            <mxPoint x="332.69" y="963" as="sourcePoint" />
            <mxPoint x="284.69" y="645" as="targetPoint" />
            <mxPoint as="offset" />
          </mxGeometry>
        </mxCell>
        <mxCell id="tgdSy5Tl4agiCcORfq1y-9" value="" style="ellipse;whiteSpace=wrap;html=1;" parent="1" vertex="1">
          <mxGeometry x="177.19" y="470" width="142.5" height="50" as="geometry" />
        </mxCell>
        <mxCell id="tgdSy5Tl4agiCcORfq1y-10" value="" style="endArrow=none;html=1;rounded=0;entryX=0;entryY=0.5;entryDx=0;entryDy=0;endFill=0;exitX=1;exitY=0.3333333333333333;exitDx=0;exitDy=0;exitPerimeter=0;" parent="1" source="f1UPAbidQjQtPA5pgHU--51" target="tgdSy5Tl4agiCcORfq1y-9" edge="1">
          <mxGeometry width="50" height="50" relative="1" as="geometry">
            <mxPoint x="61" y="600" as="sourcePoint" />
            <mxPoint x="178.44000000000005" y="490" as="targetPoint" />
          </mxGeometry>
        </mxCell>
        <mxCell id="tgdSy5Tl4agiCcORfq1y-11" value="Reset Password" style="ellipse;whiteSpace=wrap;html=1;" parent="1" vertex="1">
          <mxGeometry x="475.63" y="476.87" width="130" height="36.25" as="geometry" />
        </mxCell>
        <mxCell id="tgdSy5Tl4agiCcORfq1y-12" value="&amp;lt;&amp;lt;extend&amp;gt;&amp;gt;" style="endArrow=open;endSize=12;dashed=1;html=1;rounded=0;exitX=0;exitY=0.5;exitDx=0;exitDy=0;entryX=1;entryY=0.5;entryDx=0;entryDy=0;" parent="1" source="tgdSy5Tl4agiCcORfq1y-11" target="tgdSy5Tl4agiCcORfq1y-9" edge="1">
          <mxGeometry width="160" relative="1" as="geometry">
            <mxPoint x="374.69" y="450" as="sourcePoint" />
            <mxPoint x="304.69" y="515" as="targetPoint" />
          </mxGeometry>
        </mxCell>
        <mxCell id="tgdSy5Tl4agiCcORfq1y-13" value="" style="endArrow=none;html=1;rounded=0;exitX=0;exitY=0.5;exitDx=0;exitDy=0;" parent="1" edge="1">
          <mxGeometry width="50" height="50" relative="1" as="geometry">
            <mxPoint x="175.94" y="494.33000000000004" as="sourcePoint" />
            <mxPoint x="318.44" y="494.33000000000004" as="targetPoint" />
          </mxGeometry>
        </mxCell>
        <mxCell id="tgdSy5Tl4agiCcORfq1y-14" value="Login to Account&lt;br&gt;if forget password" style="edgeLabel;html=1;align=center;verticalAlign=middle;resizable=0;points=[];" parent="tgdSy5Tl4agiCcORfq1y-13" vertex="1" connectable="0">
          <mxGeometry x="0.2591" relative="1" as="geometry">
            <mxPoint x="-18" y="-4" as="offset" />
          </mxGeometry>
        </mxCell>
        <mxCell id="H8RiwdQ8I2OH8gTgz3R2-1" value="Delete Course Work" style="ellipse;whiteSpace=wrap;html=1;" parent="1" vertex="1">
          <mxGeometry x="520" y="692.5" width="151.25" height="35" as="geometry" />
        </mxCell>
        <mxCell id="H8RiwdQ8I2OH8gTgz3R2-2" value="&amp;lt;&amp;lt;extend&amp;gt;&amp;gt;" style="endArrow=open;endSize=12;dashed=1;html=1;rounded=0;exitX=0;exitY=0.5;exitDx=0;exitDy=0;entryX=1;entryY=0.5;entryDx=0;entryDy=0;" parent="1" source="H8RiwdQ8I2OH8gTgz3R2-1" target="qU9vDgpiJi2M7LIqRBSt-6" edge="1">
          <mxGeometry width="160" relative="1" as="geometry">
            <mxPoint x="480" y="747" as="sourcePoint" />
            <mxPoint x="340" y="708" as="targetPoint" />
          </mxGeometry>
        </mxCell>
        <mxCell id="H8RiwdQ8I2OH8gTgz3R2-3" value="Generate teacher Schedule Report Date Wise" style="ellipse;whiteSpace=wrap;html=1;" parent="1" vertex="1">
          <mxGeometry x="175.94" y="940" width="163.44" height="50" as="geometry" />
        </mxCell>
        <mxCell id="qTg6Rf06ASC7JNLhuCZD-14" value="" style="endArrow=none;html=1;rounded=0;exitX=1;exitY=0.3333333333333333;exitDx=0;exitDy=0;exitPerimeter=0;endFill=0;entryX=0;entryY=0.5;entryDx=0;entryDy=0;" parent="1" source="f1UPAbidQjQtPA5pgHU--8" target="f1UPAbidQjQtPA5pgHU--79" edge="1">
          <mxGeometry width="50" height="50" relative="1" as="geometry">
            <mxPoint x="60" y="210" as="sourcePoint" />
            <mxPoint x="100" y="158" as="targetPoint" />
          </mxGeometry>
        </mxCell>
        <mxCell id="qTg6Rf06ASC7JNLhuCZD-18" value="" style="endArrow=none;html=1;rounded=0;exitX=1;exitY=0.3333333333333333;exitDx=0;exitDy=0;exitPerimeter=0;endFill=0;entryX=0.053;entryY=0.231;entryDx=0;entryDy=0;entryPerimeter=0;" parent="1" source="f1UPAbidQjQtPA5pgHU--8" target="f1UPAbidQjQtPA5pgHU--80" edge="1">
          <mxGeometry width="50" height="50" relative="1" as="geometry">
            <mxPoint x="60" y="210" as="sourcePoint" />
            <mxPoint x="105" y="225" as="targetPoint" />
          </mxGeometry>
        </mxCell>
        <mxCell id="igzi-9qgEvDWEvtAEalD-1" value="" style="endArrow=none;html=1;rounded=0;entryX=0;entryY=0.5;entryDx=0;entryDy=0;exitX=1;exitY=0.3333333333333333;exitDx=0;exitDy=0;exitPerimeter=0;endFill=0;" parent="1" source="f1UPAbidQjQtPA5pgHU--51" target="igzi-9qgEvDWEvtAEalD-2" edge="1">
          <mxGeometry width="50" height="50" relative="1" as="geometry">
            <mxPoint x="60" y="665" as="sourcePoint" />
            <mxPoint x="180.31999999999994" y="940" as="targetPoint" />
          </mxGeometry>
        </mxCell>
        <mxCell id="igzi-9qgEvDWEvtAEalD-2" value="View All Exam Schedule" style="ellipse;whiteSpace=wrap;html=1;" parent="1" vertex="1">
          <mxGeometry x="177.19" y="890" width="150" height="40" as="geometry" />
        </mxCell>
        <mxCell id="igzi-9qgEvDWEvtAEalD-12" value="" style="endArrow=none;html=1;rounded=0;exitX=1;exitY=0.3333333333333333;exitDx=0;exitDy=0;exitPerimeter=0;endFill=0;entryX=0;entryY=0.5;entryDx=0;entryDy=0;" parent="1" source="f1UPAbidQjQtPA5pgHU--8" target="Hs3roiUV1qv6tOu6VW8x-1" edge="1">
          <mxGeometry width="50" height="50" relative="1" as="geometry">
            <mxPoint x="60" y="210" as="sourcePoint" />
            <mxPoint x="110" y="285" as="targetPoint" />
          </mxGeometry>
        </mxCell>
        <mxCell id="igzi-9qgEvDWEvtAEalD-13" value="" style="endArrow=none;html=1;rounded=0;endFill=0;entryX=0;entryY=0.5;entryDx=0;entryDy=0;exitX=1;exitY=0.3333333333333333;exitDx=0;exitDy=0;exitPerimeter=0;" parent="1" source="f1UPAbidQjQtPA5pgHU--8" target="Qv0DfQWDYl0LangmuRQz-1" edge="1">
          <mxGeometry width="50" height="50" relative="1" as="geometry">
            <mxPoint x="50" y="200" as="sourcePoint" />
            <mxPoint x="110" y="345" as="targetPoint" />
          </mxGeometry>
        </mxCell>
        <mxCell id="9zfj_GTecbera0Ij8KmZ-3" value="Generate Students Exam Result Report Batch Wise" style="ellipse;whiteSpace=wrap;html=1;" parent="1" vertex="1">
          <mxGeometry x="550" y="1010" width="150.32" height="50" as="geometry" />
        </mxCell>
        <mxCell id="9zfj_GTecbera0Ij8KmZ-4" value="Generate Students Exam Result Report Course Wise" style="ellipse;whiteSpace=wrap;html=1;" parent="1" vertex="1">
          <mxGeometry x="475.63" y="1060" width="154.37" height="50" as="geometry" />
        </mxCell>
        <mxCell id="9zfj_GTecbera0Ij8KmZ-7" value="&amp;lt;&amp;lt;extend&amp;gt;&amp;gt;" style="endArrow=open;endSize=12;dashed=1;html=1;rounded=0;exitX=0.041;exitY=0.332;exitDx=0;exitDy=0;entryX=1;entryY=0.5;entryDx=0;entryDy=0;exitPerimeter=0;" parent="1" source="9zfj_GTecbera0Ij8KmZ-3" edge="1">
          <mxGeometry x="0.0588" width="160" relative="1" as="geometry">
            <mxPoint x="480.94" y="1024.5" as="sourcePoint" />
            <mxPoint x="310.94" y="1024.5" as="targetPoint" />
            <mxPoint as="offset" />
          </mxGeometry>
        </mxCell>
        <mxCell id="9zfj_GTecbera0Ij8KmZ-8" value="&amp;lt;&amp;lt;extend&amp;gt;&amp;gt;" style="endArrow=open;endSize=12;dashed=1;html=1;rounded=0;entryX=1;entryY=0.5;entryDx=0;entryDy=0;" parent="1" edge="1">
          <mxGeometry x="0.0588" width="160" relative="1" as="geometry">
            <mxPoint x="530" y="1060" as="sourcePoint" />
            <mxPoint x="293.07" y="1040" as="targetPoint" />
            <mxPoint as="offset" />
          </mxGeometry>
        </mxCell>
        <mxCell id="POOTLohsO8YXSkFdHVWQ-2" value="Generate Students&lt;br&gt;&amp;nbsp;Data Report Course Wise" style="ellipse;whiteSpace=wrap;html=1;" parent="1" vertex="1">
          <mxGeometry x="392.51" y="105" width="167.49" height="45" as="geometry" />
        </mxCell>
        <mxCell id="POOTLohsO8YXSkFdHVWQ-3" value="Generate Students&lt;br&gt;&amp;nbsp;Data Report Batch Wise" style="ellipse;whiteSpace=wrap;html=1;" parent="1" vertex="1">
          <mxGeometry x="392.51" y="155" width="157.49" height="45" as="geometry" />
        </mxCell>
        <mxCell id="POOTLohsO8YXSkFdHVWQ-4" value="Generate Exams Results Report Batch Wise" style="ellipse;whiteSpace=wrap;html=1;" parent="1" vertex="1">
          <mxGeometry x="559.9999999999999" y="232.5" width="130" height="50" as="geometry" />
        </mxCell>
        <mxCell id="POOTLohsO8YXSkFdHVWQ-5" value="Generate Exams Results Report Course Wise" style="ellipse;whiteSpace=wrap;html=1;" parent="1" vertex="1">
          <mxGeometry x="560" y="180" width="130" height="50" as="geometry" />
        </mxCell>
        <mxCell id="WVS1_cA0_WOAThSQMi1d-5" value="&amp;lt;&amp;lt;extend&amp;gt;&amp;gt;" style="endArrow=open;endSize=12;dashed=1;html=1;rounded=0;entryX=0.967;entryY=0.32;entryDx=0;entryDy=0;entryPerimeter=0;" parent="1" target="f1UPAbidQjQtPA5pgHU--78" edge="1">
          <mxGeometry x="0.0588" width="160" relative="1" as="geometry">
            <mxPoint x="415" y="140" as="sourcePoint" />
            <mxPoint x="275" y="140" as="targetPoint" />
            <Array as="points" />
            <mxPoint as="offset" />
          </mxGeometry>
        </mxCell>
        <mxCell id="WVS1_cA0_WOAThSQMi1d-6" value="&amp;lt;&amp;lt;extend&amp;gt;&amp;gt;" style="endArrow=open;endSize=12;dashed=1;html=1;rounded=0;exitX=0.045;exitY=0.347;exitDx=0;exitDy=0;exitPerimeter=0;" parent="1" source="POOTLohsO8YXSkFdHVWQ-3" edge="1">
          <mxGeometry x="0.0487" width="160" relative="1" as="geometry">
            <mxPoint x="375" y="170" as="sourcePoint" />
            <mxPoint x="260" y="162" as="targetPoint" />
            <Array as="points">
              <mxPoint x="260" y="162" />
            </Array>
            <mxPoint as="offset" />
          </mxGeometry>
        </mxCell>
        <mxCell id="WVS1_cA0_WOAThSQMi1d-9" value="&amp;lt;&amp;lt;extend&amp;gt;&amp;gt;" style="endArrow=open;endSize=12;dashed=1;html=1;rounded=0;exitX=0.022;exitY=0.644;exitDx=0;exitDy=0;exitPerimeter=0;" parent="1" source="POOTLohsO8YXSkFdHVWQ-5" edge="1">
          <mxGeometry x="-0.2143" width="160" relative="1" as="geometry">
            <mxPoint x="413" y="205.5" as="sourcePoint" />
            <mxPoint x="260" y="204.5" as="targetPoint" />
            <Array as="points">
              <mxPoint x="355" y="204.5" />
              <mxPoint x="290" y="204.5" />
            </Array>
            <mxPoint as="offset" />
          </mxGeometry>
        </mxCell>
        <mxCell id="WVS1_cA0_WOAThSQMi1d-10" value="&amp;lt;&amp;lt;extend&amp;gt;&amp;gt;" style="endArrow=open;endSize=12;dashed=1;html=1;rounded=0;exitX=0.028;exitY=0.362;exitDx=0;exitDy=0;exitPerimeter=0;" parent="1" source="POOTLohsO8YXSkFdHVWQ-4" edge="1">
          <mxGeometry x="-0.2143" width="160" relative="1" as="geometry">
            <mxPoint x="413" y="221" as="sourcePoint" />
            <mxPoint x="260" y="220" as="targetPoint" />
            <Array as="points" />
            <mxPoint as="offset" />
          </mxGeometry>
        </mxCell>
        <mxCell id="jUG_CxRH5keHbSY09x2v-1" value="Generate Income Report" style="ellipse;whiteSpace=wrap;html=1;" parent="1" vertex="1">
          <mxGeometry x="270" y="360" width="222.49" height="50" as="geometry" />
        </mxCell>
        <mxCell id="jUG_CxRH5keHbSY09x2v-2" value="Generate Income Report Monthly" style="ellipse;whiteSpace=wrap;html=1;" parent="1" vertex="1">
          <mxGeometry x="520.64" y="305" width="157.49" height="45" as="geometry" />
        </mxCell>
        <mxCell id="jUG_CxRH5keHbSY09x2v-3" value="" style="endArrow=none;html=1;rounded=0;exitX=1;exitY=0.3333333333333333;exitDx=0;exitDy=0;exitPerimeter=0;endFill=0;entryX=0;entryY=0.5;entryDx=0;entryDy=0;" parent="1" source="f1UPAbidQjQtPA5pgHU--8" target="jUG_CxRH5keHbSY09x2v-1" edge="1">
          <mxGeometry width="50" height="50" relative="1" as="geometry">
            <mxPoint x="70" y="210" as="sourcePoint" />
            <mxPoint x="253" y="335" as="targetPoint" />
          </mxGeometry>
        </mxCell>
        <mxCell id="jUG_CxRH5keHbSY09x2v-5" value="&amp;lt;&amp;lt;extend&amp;gt;&amp;gt;" style="endArrow=open;endSize=12;dashed=1;html=1;rounded=0;exitX=0;exitY=0.5;exitDx=0;exitDy=0;entryX=1;entryY=0.5;entryDx=0;entryDy=0;" parent="1" source="jUG_CxRH5keHbSY09x2v-2" edge="1">
          <mxGeometry width="160" relative="1" as="geometry">
            <mxPoint x="631.63" y="370" as="sourcePoint" />
            <mxPoint x="475.63" y="370" as="targetPoint" />
          </mxGeometry>
        </mxCell>
      </root>
    </mxGraphModel>
  </diagram>
</mxfile>
